<mxfile host="Electron" agent="Mozilla/5.0 (Windows NT 10.0; Win64; x64) AppleWebKit/537.36 (KHTML, like Gecko) draw.io/26.2.15 Chrome/134.0.6998.205 Electron/35.2.1 Safari/537.36" version="26.2.15">
  <diagram name="Страница — 1" id="0aDTUdlPG16Yf0o2ET9C">
    <mxGraphModel dx="2505" dy="2168" grid="1" gridSize="10" guides="1" tooltips="1" connect="1" arrows="1" fold="1" page="1" pageScale="1" pageWidth="827" pageHeight="1169" math="0" shadow="0">
      <root>
        <mxCell id="0" />
        <mxCell id="1" parent="0" />
        <mxCell id="LoBr-AwoFv8rtGUZbqdu-1" value="" style="rounded=0;whiteSpace=wrap;html=1;glass=0;shadow=0;" parent="1" vertex="1">
          <mxGeometry x="-260" y="-260" width="1220" height="1120" as="geometry" />
        </mxCell>
        <mxCell id="LoBr-AwoFv8rtGUZbqdu-2" value="&lt;font style=&quot;font-size: 15px;&quot;&gt;Складской сборщик&lt;/font&gt;" style="shape=umlActor;verticalLabelPosition=bottom;verticalAlign=top;html=1;outlineConnect=0;" parent="1" vertex="1">
          <mxGeometry x="1050" y="500" width="30" height="70" as="geometry" />
        </mxCell>
        <mxCell id="LoBr-AwoFv8rtGUZbqdu-7" value="&lt;font style=&quot;font-size: 15px;&quot;&gt;Быстрый поиск товара по названию или артикулу&lt;/font&gt;" style="ellipse;whiteSpace=wrap;html=1;fillColor=#d5e8d4;strokeColor=#82b366;" parent="1" vertex="1">
          <mxGeometry x="800" y="510" width="130" height="120" as="geometry" />
        </mxCell>
        <mxCell id="LoBr-AwoFv8rtGUZbqdu-8" value="&lt;font style=&quot;font-size: 15px;&quot;&gt;Менеджер по запасам&lt;/font&gt;" style="shape=umlActor;verticalLabelPosition=bottom;verticalAlign=top;html=1;outlineConnect=0;" parent="1" vertex="1">
          <mxGeometry x="-360" y="-185" width="30" height="60" as="geometry" />
        </mxCell>
        <mxCell id="LoBr-AwoFv8rtGUZbqdu-10" value="" style="endArrow=classic;html=1;rounded=0;" parent="1" source="LoBr-AwoFv8rtGUZbqdu-2" target="LoBr-AwoFv8rtGUZbqdu-7" edge="1">
          <mxGeometry width="50" height="50" relative="1" as="geometry">
            <mxPoint x="-70" y="10" as="sourcePoint" />
            <mxPoint x="-20" y="-40" as="targetPoint" />
          </mxGeometry>
        </mxCell>
        <mxCell id="LoBr-AwoFv8rtGUZbqdu-11" value="" style="endArrow=classic;html=1;rounded=0;" parent="1" source="LoBr-AwoFv8rtGUZbqdu-8" target="LoBr-AwoFv8rtGUZbqdu-9" edge="1">
          <mxGeometry width="50" height="50" relative="1" as="geometry">
            <mxPoint x="-107" y="106" as="sourcePoint" />
            <mxPoint y="80" as="targetPoint" />
          </mxGeometry>
        </mxCell>
        <mxCell id="LoBr-AwoFv8rtGUZbqdu-12" value="&lt;font style=&quot;font-size: 15px;&quot;&gt;Складской оператор&lt;/font&gt;" style="shape=umlActor;verticalLabelPosition=bottom;verticalAlign=top;html=1;outlineConnect=0;" parent="1" vertex="1">
          <mxGeometry x="-380" y="90" width="40" height="75" as="geometry" />
        </mxCell>
        <mxCell id="LoBr-AwoFv8rtGUZbqdu-14" value="" style="endArrow=classic;html=1;rounded=0;" parent="1" source="LoBr-AwoFv8rtGUZbqdu-12" target="LoBr-AwoFv8rtGUZbqdu-13" edge="1">
          <mxGeometry width="50" height="50" relative="1" as="geometry">
            <mxPoint x="-107" y="246" as="sourcePoint" />
            <mxPoint y="220" as="targetPoint" />
          </mxGeometry>
        </mxCell>
        <mxCell id="LoBr-AwoFv8rtGUZbqdu-15" value="&lt;font style=&quot;font-size: 15px;&quot;&gt;Новый сотрудник&lt;/font&gt;" style="shape=umlActor;verticalLabelPosition=bottom;verticalAlign=top;html=1;outlineConnect=0;" parent="1" vertex="1">
          <mxGeometry x="-390" y="460" width="30" height="60" as="geometry" />
        </mxCell>
        <mxCell id="LoBr-AwoFv8rtGUZbqdu-17" value="" style="endArrow=classic;html=1;rounded=0;" parent="1" source="LoBr-AwoFv8rtGUZbqdu-15" target="LoBr-AwoFv8rtGUZbqdu-16" edge="1">
          <mxGeometry width="50" height="50" relative="1" as="geometry">
            <mxPoint x="-107" y="376" as="sourcePoint" />
            <mxPoint y="350" as="targetPoint" />
          </mxGeometry>
        </mxCell>
        <mxCell id="LoBr-AwoFv8rtGUZbqdu-18" value="&lt;font style=&quot;font-size: 15px;&quot;&gt;Складской работник&lt;/font&gt;" style="shape=umlActor;verticalLabelPosition=bottom;verticalAlign=top;html=1;outlineConnect=0;" parent="1" vertex="1">
          <mxGeometry x="-150" y="910" width="30" height="60" as="geometry" />
        </mxCell>
        <mxCell id="LoBr-AwoFv8rtGUZbqdu-20" value="" style="endArrow=classic;html=1;rounded=0;" parent="1" source="LoBr-AwoFv8rtGUZbqdu-18" target="LoBr-AwoFv8rtGUZbqdu-19" edge="1">
          <mxGeometry width="50" height="50" relative="1" as="geometry">
            <mxPoint x="-117" y="526" as="sourcePoint" />
            <mxPoint x="-10" y="500" as="targetPoint" />
          </mxGeometry>
        </mxCell>
        <mxCell id="LoBr-AwoFv8rtGUZbqdu-21" value="&lt;font style=&quot;font-size: 15px;&quot;&gt;Руководитель склада&lt;/font&gt;" style="shape=umlActor;verticalLabelPosition=bottom;verticalAlign=top;html=1;outlineConnect=0;" parent="1" vertex="1">
          <mxGeometry x="1030" y="-270" width="40" height="80" as="geometry" />
        </mxCell>
        <mxCell id="LoBr-AwoFv8rtGUZbqdu-22" value="&lt;font style=&quot;font-size: 15px;&quot;&gt;Ежедневный отчет об остатках&lt;/font&gt;" style="ellipse;whiteSpace=wrap;html=1;fillColor=#d5e8d4;strokeColor=#82b366;" parent="1" vertex="1">
          <mxGeometry x="760" y="-250" width="130" height="100" as="geometry" />
        </mxCell>
        <mxCell id="LoBr-AwoFv8rtGUZbqdu-23" value="" style="endArrow=classic;html=1;rounded=0;" parent="1" source="LoBr-AwoFv8rtGUZbqdu-21" target="LoBr-AwoFv8rtGUZbqdu-22" edge="1">
          <mxGeometry width="50" height="50" relative="1" as="geometry">
            <mxPoint x="763" y="-4" as="sourcePoint" />
            <mxPoint x="870" y="-30" as="targetPoint" />
          </mxGeometry>
        </mxCell>
        <mxCell id="LoBr-AwoFv8rtGUZbqdu-28" value="&lt;font style=&quot;font-size: 15px;&quot;&gt;Менеджер по продажам&lt;/font&gt;" style="shape=umlActor;verticalLabelPosition=bottom;verticalAlign=top;html=1;outlineConnect=0;" parent="1" vertex="1">
          <mxGeometry x="1030" y="-30" width="40" height="80" as="geometry" />
        </mxCell>
        <mxCell id="LoBr-AwoFv8rtGUZbqdu-30" value="" style="endArrow=classic;html=1;rounded=0;" parent="1" source="LoBr-AwoFv8rtGUZbqdu-28" target="LoBr-AwoFv8rtGUZbqdu-29" edge="1">
          <mxGeometry width="50" height="50" relative="1" as="geometry">
            <mxPoint x="763" y="136" as="sourcePoint" />
            <mxPoint x="870" y="110" as="targetPoint" />
          </mxGeometry>
        </mxCell>
        <mxCell id="LoBr-AwoFv8rtGUZbqdu-36" value="" style="endArrow=classic;html=1;rounded=0;" parent="1" source="LoBr-AwoFv8rtGUZbqdu-12" target="LoBr-AwoFv8rtGUZbqdu-35" edge="1">
          <mxGeometry width="50" height="50" relative="1" as="geometry">
            <mxPoint x="1000" y="358.56347889221706" as="sourcePoint" />
            <mxPoint x="870" y="260" as="targetPoint" />
          </mxGeometry>
        </mxCell>
        <mxCell id="LoBr-AwoFv8rtGUZbqdu-37" value="&lt;font style=&quot;font-size: 17px;&quot;&gt;Сис.Админ&lt;/font&gt;" style="shape=umlActor;verticalLabelPosition=bottom;verticalAlign=top;html=1;outlineConnect=0;" parent="1" vertex="1">
          <mxGeometry x="300" y="-420" width="53.75" height="100" as="geometry" />
        </mxCell>
        <mxCell id="LoBr-AwoFv8rtGUZbqdu-38" value="&lt;font style=&quot;font-size: 15px;&quot;&gt;Создание учетной записи&lt;/font&gt;" style="ellipse;whiteSpace=wrap;html=1;fillColor=#d5e8d4;strokeColor=#82b366;" parent="1" vertex="1">
          <mxGeometry x="420" y="-220" width="100" height="100" as="geometry" />
        </mxCell>
        <mxCell id="LoBr-AwoFv8rtGUZbqdu-39" value="" style="endArrow=classic;html=1;rounded=0;" parent="1" source="LoBr-AwoFv8rtGUZbqdu-37" target="LoBr-AwoFv8rtGUZbqdu-38" edge="1">
          <mxGeometry width="50" height="50" relative="1" as="geometry">
            <mxPoint x="373" y="-154" as="sourcePoint" />
            <mxPoint x="480" y="-180" as="targetPoint" />
          </mxGeometry>
        </mxCell>
        <mxCell id="LoBr-AwoFv8rtGUZbqdu-40" value="Вход в учетную запись" style="ellipse;whiteSpace=wrap;html=1;fillColor=#e1d5e7;strokeColor=#9673a6;" parent="1" vertex="1">
          <mxGeometry x="226.25" y="105" width="157.5" height="150" as="geometry" />
        </mxCell>
        <mxCell id="LoBr-AwoFv8rtGUZbqdu-44" value="" style="endArrow=classic;html=1;rounded=0;" parent="1" source="LoBr-AwoFv8rtGUZbqdu-37" target="LoBr-AwoFv8rtGUZbqdu-40" edge="1">
          <mxGeometry width="50" height="50" relative="1" as="geometry">
            <mxPoint x="160" y="-126.5" as="sourcePoint" />
            <mxPoint x="263" y="86.5" as="targetPoint" />
          </mxGeometry>
        </mxCell>
        <mxCell id="LoBr-AwoFv8rtGUZbqdu-46" value="&lt;font style=&quot;font-size: 15px;&quot;&gt;Блокировка учетной записи&lt;/font&gt;" style="ellipse;whiteSpace=wrap;html=1;fillColor=#d5e8d4;strokeColor=#82b366;" parent="1" vertex="1">
          <mxGeometry x="-10" y="-225" width="100" height="95" as="geometry" />
        </mxCell>
        <mxCell id="LoBr-AwoFv8rtGUZbqdu-47" value="" style="endArrow=classic;html=1;rounded=0;" parent="1" source="LoBr-AwoFv8rtGUZbqdu-37" target="LoBr-AwoFv8rtGUZbqdu-46" edge="1">
          <mxGeometry width="50" height="50" relative="1" as="geometry">
            <mxPoint x="-30" y="-172" as="sourcePoint" />
            <mxPoint x="260" y="-150" as="targetPoint" />
          </mxGeometry>
        </mxCell>
        <mxCell id="LoBr-AwoFv8rtGUZbqdu-63" value="&lt;font style=&quot;font-size: 15px;&quot;&gt;Управление&amp;nbsp;&lt;/font&gt;&lt;div&gt;&lt;font style=&quot;font-size: 15px;&quot;&gt;Б/Д&lt;/font&gt;&lt;/div&gt;" style="ellipse;whiteSpace=wrap;html=1;fillColor=#d5e8d4;strokeColor=#82b366;" parent="1" vertex="1">
          <mxGeometry x="160" y="-210" width="107.5" height="100" as="geometry" />
        </mxCell>
        <mxCell id="LoBr-AwoFv8rtGUZbqdu-64" value="" style="endArrow=classic;html=1;rounded=0;" parent="1" source="LoBr-AwoFv8rtGUZbqdu-37" target="LoBr-AwoFv8rtGUZbqdu-63" edge="1">
          <mxGeometry width="50" height="50" relative="1" as="geometry">
            <mxPoint x="514" y="-110" as="sourcePoint" />
            <mxPoint x="404" y="-50" as="targetPoint" />
          </mxGeometry>
        </mxCell>
        <mxCell id="LoBr-AwoFv8rtGUZbqdu-9" value="&lt;font style=&quot;font-size: 14px;&quot;&gt;Автоматическое уведомление о малом количестве товара&lt;/font&gt;" style="ellipse;whiteSpace=wrap;html=1;fillColor=#d5e8d4;strokeColor=#82b366;" parent="1" vertex="1">
          <mxGeometry x="-240" y="-250" width="130" height="120" as="geometry" />
        </mxCell>
        <mxCell id="LoBr-AwoFv8rtGUZbqdu-80" value="&lt;font style=&quot;font-size: 15px;&quot;&gt;Мерчандайзер&lt;/font&gt;" style="shape=umlActor;verticalLabelPosition=bottom;verticalAlign=top;html=1;outlineConnect=0;" parent="1" vertex="1">
          <mxGeometry x="300" y="880" width="30" height="60" as="geometry" />
        </mxCell>
        <mxCell id="LoBr-AwoFv8rtGUZbqdu-82" value="" style="endArrow=classic;html=1;rounded=0;exitX=0.5;exitY=0.5;exitDx=0;exitDy=0;exitPerimeter=0;" parent="1" source="LoBr-AwoFv8rtGUZbqdu-80" target="LoBr-AwoFv8rtGUZbqdu-81" edge="1">
          <mxGeometry width="50" height="50" relative="1" as="geometry">
            <mxPoint x="-350" y="599" as="sourcePoint" />
            <mxPoint x="-238" y="626" as="targetPoint" />
          </mxGeometry>
        </mxCell>
        <mxCell id="LoBr-AwoFv8rtGUZbqdu-91" value="&lt;font style=&quot;font-size: 15px;&quot;&gt;Контролер качества&lt;/font&gt;&lt;div&gt;&lt;br&gt;&lt;/div&gt;" style="shape=umlActor;verticalLabelPosition=bottom;verticalAlign=top;html=1;outlineConnect=0;" parent="1" vertex="1">
          <mxGeometry x="770" y="890" width="30" height="60" as="geometry" />
        </mxCell>
        <mxCell id="LoBr-AwoFv8rtGUZbqdu-92" value="&lt;font style=&quot;font-size: 15px;&quot;&gt;&amp;nbsp;Получение информации о забракованных товарах&lt;/font&gt;" style="ellipse;whiteSpace=wrap;html=1;fillColor=#d5e8d4;strokeColor=#82b366;" parent="1" vertex="1">
          <mxGeometry x="827" y="742" width="120" height="100" as="geometry" />
        </mxCell>
        <mxCell id="LoBr-AwoFv8rtGUZbqdu-93" value="" style="endArrow=classic;html=1;rounded=0;" parent="1" source="LoBr-AwoFv8rtGUZbqdu-91" target="LoBr-AwoFv8rtGUZbqdu-92" edge="1">
          <mxGeometry width="50" height="50" relative="1" as="geometry">
            <mxPoint x="363" y="611" as="sourcePoint" />
            <mxPoint x="475" y="638" as="targetPoint" />
          </mxGeometry>
        </mxCell>
        <mxCell id="LoBr-AwoFv8rtGUZbqdu-98" value="&lt;font style=&quot;font-size: 15px;&quot;&gt;Умный склад&lt;/font&gt;" style="text;html=1;align=center;verticalAlign=middle;whiteSpace=wrap;rounded=0;" parent="1" vertex="1">
          <mxGeometry x="570" y="-260" width="130" height="100" as="geometry" />
        </mxCell>
        <mxCell id="LoBr-AwoFv8rtGUZbqdu-29" value="&lt;font style=&quot;font-size: 15px;&quot;&gt;Резервирование товаров под&amp;nbsp; заказ&lt;/font&gt;" style="ellipse;whiteSpace=wrap;html=1;fillColor=#d5e8d4;strokeColor=#82b366;" parent="1" vertex="1">
          <mxGeometry x="800" y="140" width="130" height="115" as="geometry" />
        </mxCell>
        <mxCell id="LoBr-AwoFv8rtGUZbqdu-19" value="&lt;font style=&quot;font-size: 15px;&quot;&gt;Получение&lt;/font&gt;&lt;div&gt;&lt;font style=&quot;font-size: 15px;&quot;&gt;цифровых заданий&lt;/font&gt;&lt;/div&gt;" style="ellipse;whiteSpace=wrap;html=1;fillColor=#d5e8d4;strokeColor=#82b366;" parent="1" vertex="1">
          <mxGeometry x="-240" y="730" width="110" height="112" as="geometry" />
        </mxCell>
        <mxCell id="LoBr-AwoFv8rtGUZbqdu-81" value="&lt;font style=&quot;font-size: 15px;&quot;&gt;Массовая генерация и печать ценников&lt;/font&gt;" style="ellipse;whiteSpace=wrap;html=1;fillColor=#d5e8d4;strokeColor=#82b366;" parent="1" vertex="1">
          <mxGeometry x="140" y="740" width="127.5" height="110" as="geometry" />
        </mxCell>
        <mxCell id="V7nQLDR4hZUNB-KDbscw-1" value="" style="endArrow=classic;html=1;rounded=0;" edge="1" parent="1" source="LoBr-AwoFv8rtGUZbqdu-28" target="LoBr-AwoFv8rtGUZbqdu-40">
          <mxGeometry width="50" height="50" relative="1" as="geometry">
            <mxPoint x="1000" y="71" as="sourcePoint" />
            <mxPoint x="882" y="156" as="targetPoint" />
          </mxGeometry>
        </mxCell>
        <mxCell id="V7nQLDR4hZUNB-KDbscw-3" value="" style="endArrow=classic;html=1;rounded=0;" edge="1" parent="1" source="LoBr-AwoFv8rtGUZbqdu-12" target="LoBr-AwoFv8rtGUZbqdu-40">
          <mxGeometry width="50" height="50" relative="1" as="geometry">
            <mxPoint x="-340" y="230" as="sourcePoint" />
            <mxPoint x="-250" y="363" as="targetPoint" />
            <Array as="points" />
          </mxGeometry>
        </mxCell>
        <mxCell id="V7nQLDR4hZUNB-KDbscw-4" value="" style="endArrow=classic;html=1;rounded=0;" edge="1" parent="1" source="LoBr-AwoFv8rtGUZbqdu-12" target="LoBr-AwoFv8rtGUZbqdu-53">
          <mxGeometry width="50" height="50" relative="1" as="geometry">
            <mxPoint x="-360" y="238" as="sourcePoint" />
            <mxPoint x="201" y="156" as="targetPoint" />
          </mxGeometry>
        </mxCell>
        <mxCell id="V7nQLDR4hZUNB-KDbscw-5" value="" style="endArrow=classic;html=1;rounded=0;" edge="1" parent="1" source="LoBr-AwoFv8rtGUZbqdu-15" target="LoBr-AwoFv8rtGUZbqdu-53">
          <mxGeometry width="50" height="50" relative="1" as="geometry">
            <mxPoint x="-350" y="500" as="sourcePoint" />
            <mxPoint x="-200" y="500" as="targetPoint" />
          </mxGeometry>
        </mxCell>
        <mxCell id="V7nQLDR4hZUNB-KDbscw-6" value="" style="endArrow=classic;html=1;rounded=0;" edge="1" parent="1" source="LoBr-AwoFv8rtGUZbqdu-15" target="LoBr-AwoFv8rtGUZbqdu-40">
          <mxGeometry width="50" height="50" relative="1" as="geometry">
            <mxPoint x="-340" y="510" as="sourcePoint" />
            <mxPoint x="-190" y="510" as="targetPoint" />
          </mxGeometry>
        </mxCell>
        <mxCell id="V7nQLDR4hZUNB-KDbscw-8" value="" style="endArrow=classic;html=1;rounded=0;entryX=0.5;entryY=1;entryDx=0;entryDy=0;" edge="1" parent="1" source="LoBr-AwoFv8rtGUZbqdu-80" target="LoBr-AwoFv8rtGUZbqdu-53">
          <mxGeometry width="50" height="50" relative="1" as="geometry">
            <mxPoint x="335" y="930" as="sourcePoint" />
            <mxPoint x="208" y="850" as="targetPoint" />
          </mxGeometry>
        </mxCell>
        <mxCell id="V7nQLDR4hZUNB-KDbscw-9" value="" style="endArrow=classic;html=1;rounded=0;" edge="1" parent="1" source="LoBr-AwoFv8rtGUZbqdu-2" target="LoBr-AwoFv8rtGUZbqdu-53">
          <mxGeometry width="50" height="50" relative="1" as="geometry">
            <mxPoint x="1075" y="545" as="sourcePoint" />
            <mxPoint x="940" y="556" as="targetPoint" />
          </mxGeometry>
        </mxCell>
        <mxCell id="V7nQLDR4hZUNB-KDbscw-10" value="" style="endArrow=classic;html=1;rounded=0;" edge="1" parent="1" source="LoBr-AwoFv8rtGUZbqdu-2" target="LoBr-AwoFv8rtGUZbqdu-40">
          <mxGeometry width="50" height="50" relative="1" as="geometry">
            <mxPoint x="1085" y="555" as="sourcePoint" />
            <mxPoint x="950" y="566" as="targetPoint" />
          </mxGeometry>
        </mxCell>
        <mxCell id="V7nQLDR4hZUNB-KDbscw-11" value="" style="endArrow=classic;html=1;rounded=0;" edge="1" parent="1" source="LoBr-AwoFv8rtGUZbqdu-8" target="LoBr-AwoFv8rtGUZbqdu-53">
          <mxGeometry width="50" height="50" relative="1" as="geometry">
            <mxPoint x="-300" y="-136" as="sourcePoint" />
            <mxPoint x="-224" y="-168" as="targetPoint" />
          </mxGeometry>
        </mxCell>
        <mxCell id="V7nQLDR4hZUNB-KDbscw-12" value="" style="endArrow=classic;html=1;rounded=0;" edge="1" parent="1" source="LoBr-AwoFv8rtGUZbqdu-8" target="LoBr-AwoFv8rtGUZbqdu-40">
          <mxGeometry width="50" height="50" relative="1" as="geometry">
            <mxPoint x="-290" y="-126" as="sourcePoint" />
            <mxPoint x="-214" y="-158" as="targetPoint" />
          </mxGeometry>
        </mxCell>
        <mxCell id="V7nQLDR4hZUNB-KDbscw-14" value="" style="endArrow=classic;html=1;rounded=0;" edge="1" parent="1" source="LoBr-AwoFv8rtGUZbqdu-18" target="LoBr-AwoFv8rtGUZbqdu-40">
          <mxGeometry width="50" height="50" relative="1" as="geometry">
            <mxPoint x="-350" y="728" as="sourcePoint" />
            <mxPoint x="-224" y="780" as="targetPoint" />
            <Array as="points" />
          </mxGeometry>
        </mxCell>
        <mxCell id="V7nQLDR4hZUNB-KDbscw-15" value="" style="endArrow=classic;html=1;rounded=0;" edge="1" parent="1" source="LoBr-AwoFv8rtGUZbqdu-18" target="LoBr-AwoFv8rtGUZbqdu-53">
          <mxGeometry width="50" height="50" relative="1" as="geometry">
            <mxPoint x="-340" y="738" as="sourcePoint" />
            <mxPoint x="-214" y="790" as="targetPoint" />
          </mxGeometry>
        </mxCell>
        <mxCell id="LoBr-AwoFv8rtGUZbqdu-16" value="&lt;font style=&quot;font-size: 15px;&quot;&gt;Интерактивная карта зоны&lt;/font&gt;" style="ellipse;whiteSpace=wrap;html=1;fillColor=#d5e8d4;strokeColor=#82b366;" parent="1" vertex="1">
          <mxGeometry x="-230" y="460" width="130" height="120" as="geometry" />
        </mxCell>
        <mxCell id="LoBr-AwoFv8rtGUZbqdu-13" value="&lt;font style=&quot;font-size: 15px;&quot;&gt;Сканирование штрих-кода нового товара для вноса в систему&lt;/font&gt;" style="ellipse;whiteSpace=wrap;html=1;fillColor=#d5e8d4;strokeColor=#82b366;" parent="1" vertex="1">
          <mxGeometry x="-230" y="210" width="140" height="120" as="geometry" />
        </mxCell>
        <mxCell id="V7nQLDR4hZUNB-KDbscw-17" value="" style="endArrow=classic;html=1;rounded=0;" edge="1" parent="1" source="LoBr-AwoFv8rtGUZbqdu-28" target="LoBr-AwoFv8rtGUZbqdu-53">
          <mxGeometry width="50" height="50" relative="1" as="geometry">
            <mxPoint x="-330" y="748" as="sourcePoint" />
            <mxPoint x="-204" y="800" as="targetPoint" />
          </mxGeometry>
        </mxCell>
        <mxCell id="V7nQLDR4hZUNB-KDbscw-18" value="" style="endArrow=classic;html=1;rounded=0;" edge="1" parent="1" source="LoBr-AwoFv8rtGUZbqdu-21" target="LoBr-AwoFv8rtGUZbqdu-53">
          <mxGeometry width="50" height="50" relative="1" as="geometry">
            <mxPoint x="990" y="-185" as="sourcePoint" />
            <mxPoint x="816" y="-137" as="targetPoint" />
          </mxGeometry>
        </mxCell>
        <mxCell id="V7nQLDR4hZUNB-KDbscw-19" value="" style="endArrow=classic;html=1;rounded=0;" edge="1" parent="1" source="LoBr-AwoFv8rtGUZbqdu-21" target="LoBr-AwoFv8rtGUZbqdu-40">
          <mxGeometry width="50" height="50" relative="1" as="geometry">
            <mxPoint x="1000" y="-175" as="sourcePoint" />
            <mxPoint x="826" y="-127" as="targetPoint" />
          </mxGeometry>
        </mxCell>
        <mxCell id="V7nQLDR4hZUNB-KDbscw-20" value="" style="endArrow=classic;html=1;rounded=0;" edge="1" parent="1" source="LoBr-AwoFv8rtGUZbqdu-91" target="LoBr-AwoFv8rtGUZbqdu-40">
          <mxGeometry width="50" height="50" relative="1" as="geometry">
            <mxPoint x="795" y="930" as="sourcePoint" />
            <mxPoint x="864" y="844" as="targetPoint" />
          </mxGeometry>
        </mxCell>
        <mxCell id="V7nQLDR4hZUNB-KDbscw-21" value="" style="endArrow=classic;html=1;rounded=0;" edge="1" parent="1" source="LoBr-AwoFv8rtGUZbqdu-91" target="LoBr-AwoFv8rtGUZbqdu-53">
          <mxGeometry width="50" height="50" relative="1" as="geometry">
            <mxPoint x="805" y="940" as="sourcePoint" />
            <mxPoint x="874" y="854" as="targetPoint" />
          </mxGeometry>
        </mxCell>
        <mxCell id="LoBr-AwoFv8rtGUZbqdu-35" value="&lt;font style=&quot;font-size: 15px;&quot;&gt;Прием товаров по документам&lt;/font&gt;" style="ellipse;whiteSpace=wrap;html=1;fillColor=#d5e8d4;strokeColor=#82b366;" parent="1" vertex="1">
          <mxGeometry x="-240" y="-20" width="110" height="110" as="geometry" />
        </mxCell>
        <mxCell id="V7nQLDR4hZUNB-KDbscw-22" value="" style="endArrow=classic;html=1;rounded=0;entryX=0.362;entryY=0.964;entryDx=0;entryDy=0;entryPerimeter=0;" edge="1" parent="1" source="LoBr-AwoFv8rtGUZbqdu-80" target="LoBr-AwoFv8rtGUZbqdu-40">
          <mxGeometry width="50" height="50" relative="1" as="geometry">
            <mxPoint x="315" y="880" as="sourcePoint" />
            <mxPoint x="306" y="255" as="targetPoint" />
          </mxGeometry>
        </mxCell>
        <mxCell id="LoBr-AwoFv8rtGUZbqdu-53" value="Восстановление пароля" style="ellipse;whiteSpace=wrap;html=1;fillColor=#e1d5e7;strokeColor=#9673a6;" parent="1" vertex="1">
          <mxGeometry x="240" y="280" width="130" height="100" as="geometry" />
        </mxCell>
      </root>
    </mxGraphModel>
  </diagram>
</mxfile>
